<svg width="66" height="94" viewBox="0 0 66 94" fill="none" xmlns="http://www.w3.org/2000/svg">
    <path d="M60.9795 82.9415C49.0047 53.2293 25.7817 19.7398 4.17642 2.5H63.5V82.7681L63.5 87.7933C63.5 88.3116 63.5 88.7788 63.5 89.1953C63.3196 88.7476 63.1136 88.2367 62.8821 87.6622L60.9795 82.9415Z" fill="#C9632A"/>
    <path d="M60.9795 82.9415C49.0047 53.2293 25.7817 19.7398 4.17642 2.5H63.5V82.7681L63.5 87.7933C63.5 88.3116 63.5 88.7788 63.5 89.1953C63.3196 88.7476 63.1136 88.2367 62.8821 87.6622L60.9795 82.9415Z" stroke="#6B2600" stroke-width="5" stroke-linejoin="bevel"/>
    <path d="M60.9795 82.9415C49.0047 53.2293 25.7817 19.7398 4.17642 2.5H63.5V82.7681L63.5 87.7933C63.5 88.3116 63.5 88.7788 63.5 89.1953C63.3196 88.7476 63.1136 88.2367 62.8821 87.6622L60.9795 82.9415Z" stroke="url(#paint2_linear)" stroke-width="5" stroke-linejoin="bevel"/>
    <path d="M60.9795 82.9415C49.0047 53.2293 25.7817 19.7398 4.17642 2.5H63.5V82.7681L63.5 87.7933C63.5 88.3116 63.5 88.7788 63.5 89.1953C63.3196 88.7476 63.1136 88.2367 62.8821 87.6622L60.9795 82.9415Z" stroke="url(#paint3_linear)" stroke-width="5" stroke-linejoin="bevel"/>
    <path d="M49.496 31.29C48.4327 31.29 47.466 31.029 46.596 30.507C45.7453 29.9657 45.0687 29.2503 44.566 28.361C44.0633 27.4717 43.812 26.476 43.812 25.374L43.841 16.326C43.841 15.2627 44.0827 14.296 44.566 13.426C45.0687 12.5367 45.7453 11.831 46.596 11.309C47.466 10.7677 48.4327 10.497 49.496 10.497C50.5593 10.497 51.5163 10.758 52.367 11.28C53.2177 11.802 53.8943 12.5077 54.397 13.397C54.8997 14.267 55.151 15.2433 55.151 16.326V17.66C55.151 17.7373 55.1123 17.776 55.035 17.776H51.787C51.7097 17.776 51.671 17.7373 51.671 17.66V16.326C51.671 15.688 51.4583 15.137 51.033 14.673C50.627 14.209 50.1147 13.977 49.496 13.977C48.8 13.977 48.2683 14.2187 47.901 14.702C47.5337 15.166 47.35 15.7073 47.35 16.326V25.374C47.35 26.0893 47.553 26.6693 47.959 27.114C48.3843 27.5587 48.8967 27.781 49.496 27.781C50.1147 27.781 50.627 27.5393 51.033 27.056C51.4583 26.5533 51.671 25.9927 51.671 25.374V24.04C51.671 23.9627 51.7097 23.924 51.787 23.924H55.064C55.1413 23.924 55.18 23.9627 55.18 24.04V25.374C55.18 26.476 54.919 27.4717 54.397 28.361C53.8943 29.2503 53.2177 29.9657 52.367 30.507C51.5163 31.029 50.5593 31.29 49.496 31.29Z" fill="#6B2600"/>
    <path d="M46.596 30.507L46.0591 31.3507L46.0702 31.3577L46.0815 31.3645L46.596 30.507ZM44.566 28.361L43.6954 28.8531L43.6954 28.8531L44.566 28.361ZM43.812 25.374L42.812 25.3708V25.374H43.812ZM43.841 16.326L44.841 16.3292V16.326H43.841ZM44.566 13.426L43.6954 12.9339L43.6918 12.9404L44.566 13.426ZM46.596 11.309L47.119 12.1613L47.1243 12.1581L46.596 11.309ZM52.367 11.28L51.844 12.1323L51.844 12.1323L52.367 11.28ZM54.397 13.397L53.5264 13.8891L53.5311 13.8973L54.397 13.397ZM51.033 14.673L50.2804 15.3315L50.288 15.3402L50.2958 15.3487L51.033 14.673ZM47.901 14.702L48.685 15.3227L48.6912 15.315L48.6972 15.3071L47.901 14.702ZM47.959 27.114L47.2205 27.7883L47.2283 27.7968L47.2364 27.8052L47.959 27.114ZM51.033 27.056L50.2696 26.4101L50.2673 26.4128L51.033 27.056ZM54.397 28.361L53.5346 27.8548L53.5305 27.8618L53.5264 27.8689L54.397 28.361ZM52.367 30.507L52.89 31.3593L52.897 31.355L52.9039 31.3507L52.367 30.507ZM49.496 30.29C48.6048 30.29 47.8175 30.0737 47.1105 29.6495L46.0815 31.3645C47.1145 31.9843 48.2605 32.29 49.496 32.29V30.29ZM47.1329 29.6633C46.4225 29.2113 45.8596 28.6174 45.4366 27.8689L43.6954 28.8531C44.2777 29.8832 45.0682 30.7201 46.0591 31.3507L47.1329 29.6633ZM45.4366 27.8689C45.0254 27.1415 44.812 26.3176 44.812 25.374H42.812C42.812 26.6344 43.1013 27.8019 43.6954 28.8531L45.4366 27.8689ZM44.812 25.3772L44.841 16.3292L42.841 16.3228L42.812 25.3708L44.812 25.3772ZM44.841 16.326C44.841 15.4206 45.045 14.6229 45.4402 13.9116L43.6918 12.9404C43.1203 13.9691 42.841 15.1047 42.841 16.326H44.841ZM45.4366 13.9181C45.8578 13.1727 46.4164 12.5925 47.119 12.1613L46.073 10.4567C45.0743 11.0695 44.2795 11.9006 43.6954 12.9339L45.4366 13.9181ZM47.1243 12.1581C47.8296 11.7192 48.612 11.497 49.496 11.497V9.497C48.2533 9.497 47.1024 9.81611 46.0677 10.4599L47.1243 12.1581ZM49.496 11.497C50.3873 11.497 51.1611 11.7133 51.844 12.1323L52.89 10.4277C51.8716 9.80274 50.7314 9.497 49.496 9.497V11.497ZM51.844 12.1323C52.5466 12.5635 53.1052 13.1437 53.5264 13.8891L55.2676 12.9049C54.6835 11.8716 53.8887 11.0405 52.89 10.4277L51.844 12.1323ZM53.5311 13.8973C53.9392 14.6035 54.151 15.4049 54.151 16.326H56.151C56.151 15.0818 55.8602 13.9305 55.2629 12.8967L53.5311 13.8973ZM54.151 16.326V17.66H56.151V16.326H54.151ZM54.151 17.66C54.151 17.5445 54.1805 17.2742 54.4149 17.0399C54.6492 16.8055 54.9195 16.776 55.035 16.776V18.776C55.2278 18.776 55.5561 18.7271 55.8291 18.4541C56.1021 18.1811 56.151 17.8528 56.151 17.66H54.151ZM55.035 16.776H51.787V18.776H55.035V16.776ZM51.787 16.776C51.9025 16.776 52.1728 16.8055 52.4071 17.0399C52.6415 17.2742 52.671 17.5445 52.671 17.66H50.671C50.671 17.8528 50.7199 18.1811 50.9929 18.4541C51.2659 18.7271 51.5942 18.776 51.787 18.776V16.776ZM52.671 17.66V16.326H50.671V17.66H52.671ZM52.671 16.326C52.671 15.4416 52.3671 14.6485 51.7702 13.9973L50.2958 15.3487C50.5496 15.6255 50.671 15.9344 50.671 16.326H52.671ZM51.7856 14.0145C51.1889 13.3326 50.4019 12.977 49.496 12.977V14.977C49.8274 14.977 50.0651 15.0854 50.2804 15.3315L51.7856 14.0145ZM49.496 12.977C48.5396 12.977 47.6907 13.326 47.1048 14.0969L48.6972 15.3071C48.846 15.1113 49.0604 14.977 49.496 14.977V12.977ZM47.117 14.0813C46.6031 14.7304 46.35 15.493 46.35 16.326H48.35C48.35 15.9216 48.4643 15.6016 48.685 15.3227L47.117 14.0813ZM46.35 16.326V25.374H48.35V16.326H46.35ZM46.35 25.374C46.35 26.2892 46.6155 27.1257 47.2205 27.7883L48.6975 26.4397C48.4905 26.213 48.35 25.8895 48.35 25.374H46.35ZM47.2364 27.8052C47.8447 28.4412 48.6156 28.781 49.496 28.781V26.781C49.1777 26.781 48.924 26.6762 48.6816 26.4228L47.2364 27.8052ZM49.496 28.781C50.4169 28.781 51.2072 28.4034 51.7987 27.6992L50.2673 26.4128C50.0468 26.6752 49.8124 26.781 49.496 26.781V28.781ZM51.7964 27.7019C52.3639 27.0313 52.671 26.2451 52.671 25.374H50.671C50.671 25.7402 50.5528 26.0754 50.2696 26.4101L51.7964 27.7019ZM52.671 25.374V24.04H50.671V25.374H52.671ZM52.671 24.04C52.671 24.1555 52.6415 24.4258 52.4071 24.6601C52.1728 24.8945 51.9025 24.924 51.787 24.924V22.924C51.5942 22.924 51.2659 22.9729 50.9929 23.2459C50.7199 23.5189 50.671 23.8472 50.671 24.04H52.671ZM51.787 24.924H55.064V22.924H51.787V24.924ZM55.064 24.924C54.9485 24.924 54.6782 24.8945 54.4439 24.6601C54.2095 24.4258 54.18 24.1555 54.18 24.04H56.18C56.18 23.8472 56.1311 23.5189 55.8581 23.2459C55.5851 22.9729 55.2568 22.924 55.064 22.924V24.924ZM54.18 24.04V25.374H56.18V24.04H54.18ZM54.18 25.374C54.18 26.3107 53.9603 27.1295 53.5346 27.8548L55.2594 28.8672C55.8777 27.8138 56.18 26.6413 56.18 25.374H54.18ZM53.5264 27.8689C53.1034 28.6174 52.5405 29.2113 51.8301 29.6633L52.9039 31.3507C53.8948 30.7201 54.6853 29.8832 55.2676 28.8531L53.5264 27.8689ZM51.844 29.6547C51.1611 30.0737 50.3873 30.29 49.496 30.29V32.29C50.7314 32.29 51.8716 31.9843 52.89 31.3593L51.844 29.6547Z" fill="#4D1B00" fill-opacity="0.54"/>
    <defs>
        <linearGradient id="paint2_linear" x1="60" y1="5" x2="61" y2="6" gradientUnits="userSpaceOnUse">
            <stop stop-color="#DC7C49"/>
            <stop offset="1" stop-color="#DC7C49" stop-opacity="0"/>
        </linearGradient>
        <linearGradient id="paint3_linear" x1="33" y1="17.5" x2="47" y2="17" gradientUnits="userSpaceOnUse">
            <stop stop-color="#D87846"/>
            <stop offset="1" stop-color="#D87846" stop-opacity="0"/>
        </linearGradient>
    </defs>
</svg>
