<svg width="991" height="495" viewBox="0 0 991 495" fill="none" xmlns="http://www.w3.org/2000/svg">
    <path d="M991 494.5C991 429.561 978.209 365.259 953.358 305.263C928.507 245.268 892.083 190.754 846.164 144.836C800.246 98.9171 745.732 62.4925 685.737 37.6416C625.741 12.7906 561.439 -2.83856e-06 496.5 0C431.561 2.83856e-06 367.259 12.7906 307.263 37.6416C247.268 62.4925 192.754 98.9171 146.836 144.836C100.917 190.754 64.4925 245.268 39.6416 305.263C14.7906 365.259 1.99999 429.561 2 494.5L496.5 494.5H991Z" fill="url(#paint0_radial)"/>
    <path d="M741 494.5C741 462.392 734.676 430.598 722.389 400.934C710.101 371.27 692.092 344.316 669.388 321.612C646.684 298.908 619.73 280.899 590.066 268.611C560.402 256.324 528.608 250 496.5 250C464.392 250 432.598 256.324 402.934 268.611C373.27 280.899 346.316 298.908 323.612 321.612C300.908 344.316 282.899 371.27 270.611 400.934C258.324 430.598 252 462.392 252 494.5L343.406 494.5C343.406 474.395 347.366 454.488 355.06 435.914C362.754 417.339 374.03 400.462 388.246 386.246C402.462 372.03 419.339 360.754 437.914 353.06C456.488 345.366 476.395 341.406 496.5 341.406C516.605 341.406 536.512 345.366 555.086 353.06C573.661 360.754 590.538 372.03 604.754 386.246C618.97 400.462 630.246 417.339 637.94 435.914C645.634 454.488 649.594 474.395 649.594 494.5H741Z" fill="url(#paint1_angular)"/>
    <path d="M2 494.5C2 442.14 10.3157 390.113 26.6364 340.362L264.919 418.53C256.875 443.051 252.777 468.694 252.777 494.5H2Z" fill="#FF0000" fill-opacity="0.13"/>
    <path d="M0 494.5C0 442.14 8.31572 390.113 24.6364 340.362L75.3528 357C60.7937 401.381 53.3756 447.792 53.3756 494.5H0Z" fill="#FF0000" fill-opacity="0.13"/>
    <path d="M253 494.498C253 352 371.5 251 497 251C624.5 251 741 354 741 494.498" stroke="#686868"/>
    <path d="M991 493.5C991 441.361 982.754 389.55 966.568 339.986L729.13 417.528C737.141 442.056 741.221 467.697 741.221 493.5H991Z" fill="#027700" fill-opacity="0.21"/>
    <path d="M991 493.5C991 441.361 982.754 389.55 966.568 339.986L914.869 356.87C929.275 400.982 936.614 447.095 936.614 493.5H991Z" fill="#027700" fill-opacity="0.21"/>
    <defs>
        <radialGradient id="paint0_radial" cx="0" cy="0" r="1" gradientUnits="userSpaceOnUse" gradientTransform="translate(496.5 494.5) rotate(-45) scale(494.268)">
            <stop stop-color="#FFFDEA"/>
            <stop offset="1" stop-color="#DCDAC6"/>
        </radialGradient>
        <radialGradient id="paint1_angular" cx="0" cy="0" r="1" gradientUnits="userSpaceOnUse" gradientTransform="translate(496.5 494.5) rotate(0.0579342) scale(244.5)">
            <stop offset="0.499865" stop-color="#A7C8CF" stop-opacity="0"/>
            <stop offset="1" stop-color="#A7C8CF"/>
        </radialGradient>
    </defs>
</svg>
