<svg width="225" height="59" viewBox="0 0 225 59" fill="none" xmlns="http://www.w3.org/2000/svg">
    <path d="M0.593506 4.5C0.593506 2.29086 2.38437 0.5 4.59351 0.5H189.512C190.472 0.5 191.4 0.845034 192.126 1.47215L221.086 26.4721C222.934 28.0676 222.934 30.9323 221.086 32.5279L192.126 57.5279C191.4 58.155 190.472 58.5 189.512 58.5H4.59351C2.38437 58.5 0.593506 56.7091 0.593506 54.5V4.5Z" fill="url(#paint0_radial)"/>
    <g filter="url(#filter0_d)">
        <path d="M18.76 44C18.6533 44 18.6 43.9333 18.6 43.8L18.64 16.36C18.64 16.2267 18.7067 16.16 18.84 16.16H23.28C23.4133 16.16 23.48 16.2267 23.48 16.36L23.44 39.08H31.68C31.8133 39.08 31.88 39.1467 31.88 39.28V43.8C31.88 43.9333 31.8133 44 31.68 44H18.76ZM34.6584 44C34.5518 44 34.4984 43.9333 34.4984 43.8L34.5384 16.32C34.5384 16.2133 34.5918 16.16 34.6984 16.16H47.5384C47.6451 16.16 47.6984 16.2267 47.6984 16.36V20.84C47.6984 20.9467 47.6451 21 47.5384 21H39.3384V27.24H47.5384C47.6451 27.24 47.6984 27.2933 47.6984 27.4L47.7384 31.92C47.7384 32.0267 47.6851 32.08 47.5784 32.08H39.3384V39.08H47.5784C47.6851 39.08 47.7384 39.1467 47.7384 39.28V43.84C47.7384 43.9467 47.6851 44 47.5784 44H34.6584ZM55.2953 44C55.1886 44 55.1353 43.9333 55.1353 43.8V21H49.9353C49.802 21 49.7353 20.9333 49.7353 20.8L49.7753 16.32C49.7753 16.2133 49.8286 16.16 49.9353 16.16H65.1353C65.2686 16.16 65.3353 16.2133 65.3353 16.32V20.8C65.3353 20.9333 65.282 21 65.1753 21H59.9353L59.9753 43.8C59.9753 43.9333 59.922 44 59.8153 44H55.2953ZM67.3109 25.56V23.08C67.9776 23.08 68.5376 22.8267 68.9909 22.32C69.4709 21.8133 69.7109 21.2133 69.7109 20.52H67.4709C67.3643 20.52 67.3109 20.4667 67.3109 20.36V15.88C67.3109 15.7733 67.3643 15.72 67.4709 15.72H71.9909C72.0976 15.72 72.1509 15.7733 72.1509 15.88V20.52C72.1509 21.4533 71.9243 22.3067 71.4709 23.08C71.0176 23.8533 70.4176 24.4667 69.6709 24.92C68.9509 25.3467 68.1643 25.56 67.3109 25.56ZM82.2359 44.4C80.7959 44.4 79.4759 44.04 78.2759 43.32C77.1026 42.5733 76.1559 41.6 75.4359 40.4C74.7426 39.1733 74.3959 37.8267 74.3959 36.36V34.52C74.3959 34.3867 74.4626 34.32 74.5959 34.32H79.0759C79.1826 34.32 79.2359 34.3867 79.2359 34.52V36.36C79.2359 37.24 79.5293 38 80.1159 38.64C80.7026 39.2533 81.4093 39.56 82.2359 39.56C83.0626 39.56 83.7693 39.24 84.3559 38.6C84.9426 37.96 85.2359 37.2133 85.2359 36.36C85.2359 35.3733 84.5959 34.52 83.3159 33.8C82.8893 33.56 82.2226 33.1867 81.3159 32.68C80.4093 32.1733 79.5559 31.6933 78.7559 31.24C77.2893 30.3867 76.1959 29.32 75.4759 28.04C74.7826 26.7333 74.4359 25.2667 74.4359 23.64C74.4359 22.1467 74.7959 20.8133 75.5159 19.64C76.2359 18.44 77.1826 17.4933 78.3559 16.8C79.5559 16.1067 80.8493 15.76 82.2359 15.76C83.6493 15.76 84.9426 16.12 86.1159 16.84C87.3159 17.5333 88.2626 18.48 88.9559 19.68C89.6759 20.8533 90.0359 22.1733 90.0359 23.64V26.92C90.0359 27.0267 89.9826 27.08 89.8759 27.08H85.3959C85.2893 27.08 85.2359 27.0267 85.2359 26.92L85.1959 23.64C85.1959 22.7067 84.9026 21.9467 84.3159 21.36C83.7293 20.7733 83.0359 20.48 82.2359 20.48C81.4093 20.48 80.7026 20.8 80.1159 21.44C79.5293 22.0533 79.2359 22.7867 79.2359 23.64C79.2359 24.52 79.4226 25.2533 79.7959 25.84C80.1693 26.4267 80.8493 26.9867 81.8359 27.52C81.9693 27.6 82.2226 27.7467 82.5959 27.96C82.9959 28.1467 83.4226 28.3733 83.8759 28.64C84.3293 28.88 84.7293 29.0933 85.0759 29.28C85.4493 29.4667 85.6759 29.5867 85.7559 29.64C87.0893 30.3867 88.1426 31.3067 88.9159 32.4C89.6893 33.4667 90.0759 34.7867 90.0759 36.36C90.0759 37.88 89.7159 39.2533 88.9959 40.48C88.3026 41.68 87.3559 42.64 86.1559 43.36C84.9826 44.0533 83.6759 44.4 82.2359 44.4ZM98.9953 44C98.862 44 98.7953 43.9333 98.7953 43.8L98.8753 16.32C98.8753 16.2133 98.9286 16.16 99.0353 16.16H106.715C109.169 16.16 111.102 16.9067 112.515 18.4C113.955 19.8933 114.675 21.92 114.675 24.48C114.675 26.3733 114.302 28.0133 113.555 29.4C112.809 30.7867 111.835 31.8533 110.635 32.6C109.435 33.3467 108.129 33.72 106.715 33.72H103.675V43.8C103.675 43.9333 103.609 44 103.475 44H98.9953ZM103.675 28.88H106.715C107.569 28.88 108.302 28.48 108.915 27.68C109.555 26.8533 109.875 25.7867 109.875 24.48C109.875 23.44 109.595 22.5867 109.035 21.92C108.475 21.2533 107.702 20.92 106.715 20.92L103.675 20.96V28.88ZM124.437 44.4C123.023 44.4 121.717 44.04 120.517 43.32C119.317 42.5733 118.357 41.5867 117.637 40.36C116.943 39.1333 116.597 37.7867 116.597 36.32L116.677 16.32C116.677 16.2133 116.73 16.16 116.837 16.16H121.317C121.423 16.16 121.477 16.2133 121.477 16.32V36.32C121.477 37.2267 121.757 38 122.317 38.64C122.903 39.2533 123.61 39.56 124.437 39.56C125.29 39.56 125.997 39.2533 126.557 38.64C127.143 38 127.437 37.2267 127.437 36.32V16.32C127.437 16.2133 127.49 16.16 127.597 16.16H132.077C132.183 16.16 132.237 16.2133 132.237 16.32L132.317 36.32C132.317 37.8133 131.957 39.1733 131.237 40.4C130.543 41.6267 129.597 42.6 128.397 43.32C127.223 44.04 125.903 44.4 124.437 44.4ZM139.475 44C139.368 44 139.315 43.9333 139.315 43.8V21H134.115C133.982 21 133.915 20.9333 133.915 20.8L133.955 16.32C133.955 16.2133 134.008 16.16 134.115 16.16H149.315C149.448 16.16 149.515 16.2133 149.515 16.32V20.8C149.515 20.9333 149.462 21 149.355 21H144.115L144.155 43.8C144.155 43.9333 144.102 44 143.995 44H139.475ZM155.491 44C155.384 44 155.331 43.9333 155.331 43.8V21H150.131C149.997 21 149.931 20.9333 149.931 20.8L149.971 16.32C149.971 16.2133 150.024 16.16 150.131 16.16H165.331C165.464 16.16 165.531 16.2133 165.531 16.32V20.8C165.531 20.9333 165.477 21 165.371 21H160.131L160.171 43.8C160.171 43.9333 160.117 44 160.011 44H155.491ZM168.546 36.64C168.44 36.64 168.373 36.5733 168.346 36.44L167.506 27.24V16.36C167.506 16.2267 167.56 16.16 167.666 16.16H172.146C172.28 16.16 172.346 16.2267 172.346 16.36L172.306 27.24L171.466 36.44C171.44 36.5733 171.373 36.64 171.266 36.64H168.546ZM167.666 44C167.56 44 167.506 43.9333 167.506 43.8V39.44C167.506 39.3333 167.56 39.28 167.666 39.28H172.146C172.253 39.28 172.306 39.3333 172.306 39.44V43.8C172.306 43.9333 172.253 44 172.146 44H167.666Z" fill="#381B1B"/>
    </g>
    <defs>
        <filter id="filter0_d" x="18.6" y="15.72" width="154.746" height="29.68" filterUnits="userSpaceOnUse" color-interpolation-filters="sRGB">
            <feFlood flood-opacity="0" result="BackgroundImageFix"/>
            <feColorMatrix in="SourceAlpha" type="matrix" values="0 0 0 0 0 0 0 0 0 0 0 0 0 0 0 0 0 0 127 0"/>
            <feOffset dx="1" dy="1"/>
            <feColorMatrix type="matrix" values="0 0 0 0 0 0 0 0 0 0 0 0 0 0 0 0 0 0 0.25 0"/>
            <feBlend mode="normal" in2="BackgroundImageFix" result="effect1_dropShadow"/>
            <feBlend mode="normal" in="SourceGraphic" in2="effect1_dropShadow" result="shape"/>
        </filter>
        <radialGradient id="paint0_radial" cx="0" cy="0" r="1" gradientUnits="userSpaceOnUse" gradientTransform="translate(112.593 29.5) rotate(90) scale(45.5 175.724)">
            <stop stop-color="#F09866"/>
            <stop offset="1" stop-color="#C9632A"/>
        </radialGradient>
    </defs>
</svg>
