<svg width="66" height="94" viewBox="0 0 66 94" fill="none" xmlns="http://www.w3.org/2000/svg">
    <path d="M61.8236 2.5H2.5V82.7681L2.50002 87.7933C2.50002 88.3116 2.50002 88.7788 2.50002 89.1953C2.68043 88.7476 2.88635 88.2367 3.11789 87.6622L5.0205 82.9415C16.9953 53.2293 40.2183 19.7398 61.8236 2.5Z" fill="#262629"/>
    <path d="M61.8236 2.5H2.5V82.7681L2.50002 87.7933C2.50002 88.3116 2.50002 88.7788 2.50002 89.1953C2.68043 88.7476 2.88635 88.2367 3.11789 87.6622L5.0205 82.9415C16.9953 53.2293 40.2183 19.7398 61.8236 2.5Z" stroke="black" stroke-width="5" stroke-linejoin="bevel"/>
    <path d="M61.8236 2.5H2.5V82.7681L2.50002 87.7933C2.50002 88.3116 2.50002 88.7788 2.50002 89.1953C2.68043 88.7476 2.88635 88.2367 3.11789 87.6622L5.0205 82.9415C16.9953 53.2293 40.2183 19.7398 61.8236 2.5Z" stroke="url(#paint0_linear)" stroke-width="5" stroke-linejoin="bevel"/>
    <path d="M61.8236 2.5H2.5V82.7681L2.50002 87.7933C2.50002 88.3116 2.50002 88.7788 2.50002 89.1953C2.68043 88.7476 2.88635 88.2367 3.11789 87.6622L5.0205 82.9415C16.9953 53.2293 40.2183 19.7398 61.8236 2.5Z" stroke="url(#paint1_linear)" stroke-width="5" stroke-linejoin="bevel"/>
    <path d="M17.8598 9L17.5406 12.1686C16.8885 12.3424 16.2704 12.5991 15.6999 12.9298L13.2345 10.915L10.915 13.2345L12.9298 15.7007C12.5952 16.2779 12.3387 16.8969 12.1669 17.5415L9 17.8598V21.141L12.1686 21.4594C12.3423 22.1111 12.5994 22.729 12.9298 23.2992L10.915 25.7655L13.2345 28.085L15.7007 26.0702C16.271 26.4006 16.8889 26.6577 17.5406 26.8314L17.859 30H21.1402L21.4585 26.8331C22.1031 26.6613 22.7221 26.4048 23.2992 26.0702L25.7655 28.085L28.085 25.7655L26.0702 23.3001C26.4009 22.7296 26.6576 22.1115 26.8314 21.4594L30 21.141V17.8598L26.8331 17.5415C26.6614 16.8966 26.4049 16.2773 26.0702 15.6999L28.085 13.2345L25.7655 10.915L23.3001 12.9298C22.7227 12.5951 22.1034 12.3386 21.4585 12.1669L21.1402 9H17.8598ZM19.5 16.4645C21.1763 16.4645 22.5355 17.8237 22.5355 19.5C22.5355 21.1763 21.1763 22.5355 19.5 22.5355C17.8237 22.5355 16.4645 21.1763 16.4645 19.5C16.4645 17.8237 17.8237 16.4645 19.5 16.4645Z" fill="#FCF3E2"/>
    <defs>
        <linearGradient id="paint0_linear" x1="6" y1="5" x2="5" y2="6" gradientUnits="userSpaceOnUse">
            <stop stop-color="#414148"/>
            <stop offset="1" stop-color="#424249" stop-opacity="0"/>
        </linearGradient>
        <linearGradient id="paint1_linear" x1="33" y1="17.5" x2="19" y2="17" gradientUnits="userSpaceOnUse">
            <stop stop-color="#404047"/>
            <stop offset="1" stop-color="#424248" stop-opacity="0"/>
        </linearGradient>
    </defs>
</svg>
